<svg width="1069" height="995" viewBox="0 0 1069 995" fill="none" xmlns="http://www.w3.org/2000/svg">
<path d="M976.991 571.149C957.801 1032.33 530.817 893.916 319.724 767.063L204.634 573.853L74.1713 261.459L322.522 118.051C548.674 76.9262 996.181 109.971 976.991 571.149Z" fill="#FEC828" fill-opacity="0.2"/>
<path d="M1005.49 518.566C1005.72 521.856 1005.87 525.169 1005.94 528.505L1002.44 528.584C1002.48 530.226 1002.5 531.873 1002.5 533.526C1002.5 535.174 1002.48 536.822 1002.44 538.47L1005.94 538.548C1005.87 541.896 1005.72 545.245 1005.5 548.594L1002.01 548.363C1001.79 551.648 1001.5 554.934 1001.14 558.22L1004.62 558.601C1004.25 561.929 1003.82 565.255 1003.31 568.58L999.852 568.054C999.357 571.306 998.795 574.557 998.166 577.806L1001.6 578.471C1000.97 581.759 1000.26 585.043 999.493 588.323L996.086 587.524C995.335 590.724 994.521 593.921 993.643 597.114L997.018 598.041C996.131 601.272 995.18 604.497 994.168 607.717L990.829 606.667C989.843 609.801 988.798 612.93 987.694 616.053L990.994 617.22C989.878 620.378 988.703 623.53 987.47 626.674L984.211 625.396C983.012 628.456 981.756 631.509 980.446 634.556L983.661 635.938C982.338 639.015 980.96 642.084 979.528 645.144L976.358 643.661C974.964 646.639 973.518 649.611 972.022 652.573L975.146 654.151C973.636 657.141 972.074 660.122 970.463 663.093L967.386 661.424C965.817 664.317 964.2 667.2 962.536 670.074L965.565 671.828C963.885 674.728 962.159 677.618 960.385 680.497L957.405 678.661C955.679 681.464 953.908 684.257 952.093 687.038L955.024 688.951C953.193 691.757 951.318 694.553 949.4 697.336L946.518 695.35C944.648 698.063 942.737 700.765 940.785 703.455L943.617 705.511C941.651 708.221 939.644 710.919 937.597 713.604L934.813 711.482C932.812 714.107 930.771 716.72 928.693 719.321L931.427 721.506C929.339 724.119 927.213 726.719 925.05 729.305L922.365 727.06C920.242 729.598 918.084 732.122 915.89 734.634L918.525 736.936C916.327 739.453 914.094 741.955 911.826 744.443L909.24 742.085C907.006 744.536 904.738 746.973 902.438 749.395L904.976 751.805C902.677 754.225 900.347 756.63 897.985 759.02L895.495 756.56C893.159 758.924 890.79 761.274 888.392 763.608L890.833 766.116C888.443 768.441 886.024 770.75 883.576 773.043L881.183 770.489C878.751 772.766 876.29 775.028 873.801 777.274L876.145 779.873C873.672 782.103 871.172 784.318 868.645 786.515L866.348 783.874C863.837 786.057 861.298 788.225 858.733 790.375L860.982 793.057C858.424 795.201 855.84 797.329 853.231 799.439L851.03 796.717C848.445 798.808 845.836 800.881 843.202 802.936L845.355 805.695C842.717 807.754 840.055 809.794 837.369 811.817L835.264 809.021C832.612 811.018 829.936 812.998 827.238 814.959L829.296 817.79C826.584 819.762 823.849 821.715 821.093 823.649L819.082 820.784C816.367 822.689 813.63 824.576 810.872 826.444L812.835 829.342C810.061 831.221 807.266 833.081 804.451 834.921L802.536 831.991C799.754 833.81 796.952 835.609 794.131 837.389L795.999 840.349C793.169 842.134 790.319 843.9 787.451 845.645L785.632 842.655C782.786 844.387 779.923 846.098 777.041 847.79L778.812 850.808C775.929 852.5 773.028 854.172 770.11 855.823L768.387 852.776C765.485 854.418 762.565 856.039 759.629 857.639L761.304 860.713C758.369 862.312 755.418 863.89 752.451 865.447L750.824 862.348C747.875 863.896 744.91 865.422 741.929 866.927L743.506 870.051C740.517 871.56 737.513 873.048 734.494 874.513L732.966 871.364C729.971 872.817 726.962 874.248 723.939 875.657L725.418 878.829C722.379 880.246 719.326 881.639 716.26 883.01L714.832 879.815C711.794 881.173 708.744 882.508 705.681 883.82L707.059 887.037C703.979 888.357 700.886 889.653 697.78 890.925L696.453 887.687C693.371 888.95 690.278 890.189 687.172 891.405L688.448 894.664C685.329 895.885 682.199 897.082 679.058 898.255L677.834 894.976C674.711 896.141 671.577 897.283 668.433 898.4L669.605 901.698C666.45 902.819 663.284 903.915 660.108 904.986L658.99 901.67C655.832 902.735 652.664 903.776 649.487 904.791L650.552 908.125C647.361 909.144 644.16 910.138 640.951 911.106L639.94 907.755C636.75 908.718 633.552 909.654 630.345 910.565L631.301 913.932C628.077 914.847 624.845 915.736 621.605 916.599L620.704 913.217C617.485 914.074 614.258 914.904 611.025 915.708L611.869 919.104C608.616 919.913 605.356 920.694 602.09 921.448L601.303 918.037C598.056 918.786 594.803 919.508 591.545 920.202L592.274 923.625C588.996 924.324 585.712 924.994 582.422 925.636L581.752 922.201C578.482 922.839 575.206 923.448 571.926 924.03L572.537 927.476C569.236 928.061 565.931 928.617 562.621 929.144L562.071 925.688C558.781 926.212 555.487 926.706 552.19 927.172L552.679 930.637C549.359 931.106 546.036 931.545 542.71 931.953L542.283 928.479C538.977 928.886 535.668 929.262 532.356 929.608L532.72 933.089C529.386 933.438 526.049 933.755 522.711 934.042L522.411 930.555C519.092 930.84 515.772 931.095 512.45 931.318L512.685 934.81C509.341 935.035 505.995 935.229 502.648 935.39L502.479 931.894C499.153 932.055 495.826 932.184 492.498 932.281L492.6 935.779C489.25 935.877 485.899 935.943 482.548 935.975L482.514 932.476C480.849 932.492 479.185 932.5 477.521 932.5C475.851 932.5 474.182 932.493 472.516 932.481L472.489 935.98C469.138 935.954 465.796 935.902 462.463 935.824L462.544 932.325C459.227 932.248 455.919 932.145 452.619 932.016L452.483 935.514C449.128 935.383 445.782 935.226 442.445 935.044L442.636 931.549C439.318 931.367 436.009 931.16 432.711 930.927L432.464 934.418C429.123 934.183 425.791 933.921 422.47 933.634L422.772 930.147C419.455 929.86 416.148 929.547 412.852 929.208L412.495 932.69C409.171 932.349 405.859 931.982 402.558 931.59L402.971 928.114C399.658 927.72 396.357 927.301 393.068 926.856L392.598 930.324C389.29 929.876 385.994 929.403 382.71 928.904L383.236 925.444C379.937 924.943 376.651 924.416 373.378 923.864L372.796 927.316C369.498 926.759 366.214 926.177 362.942 925.57L363.581 922.129C360.309 921.521 357.05 920.888 353.804 920.23L353.109 923.66C349.826 922.994 346.556 922.302 343.302 921.585L344.055 918.167C340.812 917.452 337.583 916.712 334.369 915.946L333.558 919.351C330.294 918.574 327.045 917.771 323.811 916.943L324.68 913.552C321.466 912.729 318.267 911.881 315.084 911.007L314.158 914.382C310.921 913.494 307.699 912.579 304.495 911.64L305.48 908.281C302.292 907.347 299.12 906.387 295.966 905.402L294.923 908.743C291.723 907.744 288.542 906.719 285.378 905.67L286.48 902.348C283.322 901.3 280.183 900.228 277.062 899.13L275.901 902.432C272.744 901.322 269.606 900.187 266.487 899.026L267.707 895.746C264.586 894.585 261.484 893.398 258.402 892.187L257.122 895.445C254.011 894.222 250.921 892.975 247.851 891.703L249.19 888.47C246.11 887.194 243.051 885.892 240.014 884.566L238.614 887.774C235.554 886.439 232.516 885.079 229.5 883.694L230.96 880.513C227.928 879.121 224.917 877.704 221.93 876.262L220.409 879.414C217.401 877.962 214.417 876.486 211.456 874.986L213.038 871.864C210.063 870.356 207.112 868.824 204.186 867.267L202.542 870.357C199.591 868.788 196.665 867.193 193.764 865.575L195.469 862.519C192.559 860.895 189.675 859.248 186.817 857.576L185.05 860.597C182.163 858.908 179.303 857.195 176.469 855.458L178.298 852.474C175.46 850.734 172.649 848.97 169.866 847.182L167.974 850.127C165.159 848.318 162.371 846.485 159.613 844.629L161.567 841.725C158.807 839.867 156.077 837.986 153.376 836.081L151.358 838.941C148.623 837.012 145.917 835.058 143.242 833.081L145.323 830.267C142.649 828.29 140.006 826.29 137.395 824.267L135.251 827.034C132.604 824.983 129.99 822.909 127.408 820.811L129.615 818.095C127.035 815.999 124.488 813.88 121.976 811.738L119.705 814.401C117.157 812.229 114.643 810.034 112.164 807.816L114.498 805.208C112.022 802.992 109.581 800.753 107.176 798.492L104.779 801.042C102.34 798.749 99.9375 796.433 97.5721 794.095L100.033 791.606C97.6703 789.27 95.3455 786.912 93.0589 784.532L90.5351 786.957C88.2166 784.544 85.9369 782.109 83.6966 779.651L86.2832 777.293C84.0456 774.839 81.848 772.362 79.691 769.864L77.042 772.152C74.8561 769.62 72.7113 767.067 70.6082 764.492L73.3189 762.278C71.2183 759.706 69.1601 757.113 67.1449 754.499L64.373 756.636C62.3323 753.989 60.335 751.32 58.382 748.631L61.214 746.574C59.2633 743.888 57.3574 741.182 55.4971 738.455L52.6058 740.427C50.7235 737.668 48.887 734.888 47.0972 732.088L50.0462 730.203C48.2591 727.407 46.5192 724.591 44.8272 721.756L41.8217 723.55C40.1093 720.68 38.4453 717.791 36.8305 714.882L39.8906 713.183C38.2829 710.287 36.7247 707.372 35.2167 704.438L32.1039 706.039C30.5758 703.066 29.0987 700.074 27.6732 697.064L30.8364 695.566C29.4211 692.577 28.0575 689.57 26.7463 686.546L23.5351 687.938C22.2057 684.872 20.9294 681.788 19.7071 678.686L22.9634 677.402C21.7528 674.33 20.5959 671.241 19.4934 668.135L16.1951 669.306C15.0776 666.158 14.0153 662.993 13.009 659.811L16.3461 658.756C15.3513 655.611 14.4121 652.45 13.5291 649.273L10.157 650.21C9.26309 646.995 8.42614 643.763 7.64694 640.517L11.0503 639.7C10.2809 636.494 9.56852 633.273 8.91404 630.039L5.48355 630.733C4.82258 627.466 4.21985 624.185 3.6762 620.89L7.12951 620.32C6.59331 617.07 6.11531 613.806 5.69632 610.53L2.2246 610.974C1.80219 607.671 1.43899 604.354 1.13581 601.026L4.62139 600.708C4.32298 597.432 4.08346 594.143 3.90364 590.843L0.408824 591.034C0.227716 587.71 0.106386 584.374 0.0456222 581.028L3.54505 580.964C3.51505 579.312 3.5 577.657 3.5 576C3.5 574.342 3.51505 572.687 3.54505 571.035L0.0456314 570.972C0.106401 567.625 0.227737 564.29 0.408851 560.966L3.90367 561.156C4.0835 557.856 4.32301 554.568 4.62143 551.291L1.13586 550.974C1.43904 547.645 1.80224 544.329 2.22465 541.026L5.69638 541.47C6.11537 538.193 6.59337 534.93 7.12958 531.68L3.67627 531.11C4.21993 527.815 4.82266 524.534 5.48363 521.267L8.91411 521.961C9.56861 518.726 10.281 515.506 11.0504 512.3L7.64703 511.483C8.42624 508.236 9.26319 505.005 10.1571 501.789L13.5292 502.727C14.4122 499.55 15.3514 496.389 16.3462 493.244L13.0091 492.189C14.0154 489.007 15.0777 485.842 16.1952 482.694L19.4936 483.864C20.596 480.759 21.7529 477.669 22.9635 474.597L19.7072 473.314C20.9295 470.212 22.2058 467.128 23.5352 464.061L26.7464 465.454C28.0576 462.429 29.4212 459.422 30.8365 456.434L27.6733 454.936C29.0988 451.926 30.576 448.934 32.104 445.961L35.2168 447.561C36.7248 444.628 38.283 441.712 39.8908 438.816L36.8307 437.118C38.4455 434.209 40.1095 431.319 41.8219 428.45L44.8274 430.243C46.5193 427.408 48.2593 424.592 50.0464 421.797L47.0974 419.912C48.8872 417.112 50.7236 414.332 52.606 411.573L55.4972 413.545C57.3576 410.818 59.2635 408.111 61.2142 405.425L58.3822 403.369C60.3352 400.679 62.3325 398.011 64.3732 395.364L67.1451 397.501C69.1603 394.887 71.2185 392.294 73.3191 389.722L70.6084 387.508C72.7114 384.933 74.8563 382.379 77.0422 379.848L79.6912 382.136C81.8482 379.638 84.0458 377.161 86.2834 374.707L83.6968 372.349C85.9371 369.891 88.2168 367.456 90.5353 365.043L93.0591 367.468C95.3457 365.088 97.6705 362.73 100.033 360.394L97.5722 357.905C99.9376 355.567 102.34 353.251 104.779 350.958L107.177 353.508C109.581 351.247 112.022 349.008 114.498 346.792L112.164 344.184C114.643 341.966 117.157 339.77 119.705 337.598L121.976 340.262C124.489 338.12 127.035 336.001 129.615 333.905L127.408 331.189C129.99 329.091 132.604 327.017 135.251 324.966L137.395 327.733C140.006 325.71 142.649 323.71 145.323 321.733L143.242 318.919C145.917 316.942 148.623 314.988 151.358 313.059L153.376 315.919C156.077 314.014 158.807 312.132 161.567 310.275L159.613 307.371C162.372 305.514 165.159 303.682 167.974 301.873L169.866 304.818C172.649 303.03 175.46 301.266 178.298 299.526L176.469 296.542C179.303 294.805 182.163 293.092 185.05 291.403L186.817 294.424C189.675 292.752 192.559 291.105 195.469 289.481L193.764 286.425C196.665 284.806 199.591 283.212 202.542 281.643L204.186 284.733C207.112 283.176 210.063 281.644 213.038 280.136L211.456 277.014C214.417 275.514 217.401 274.037 220.409 272.586L221.93 275.738C224.917 274.296 227.928 272.879 230.96 271.487L229.5 268.306C232.516 266.921 235.554 265.561 238.614 264.226L240.014 267.433C243.052 266.108 246.111 264.806 249.191 263.53L247.851 260.297C250.921 259.025 254.011 257.777 257.122 256.555L258.402 259.813C261.484 258.602 264.586 257.415 267.707 256.254L266.487 252.974C269.606 251.813 272.745 250.678 275.902 249.568L277.063 252.87C280.183 251.772 283.323 250.7 286.48 249.652L285.378 246.33C288.542 245.281 291.724 244.256 294.923 243.257L295.966 246.598C299.12 245.613 302.292 244.653 305.48 243.719L304.495 240.36C307.7 239.42 310.921 238.506 314.158 237.618L315.085 240.993C318.267 240.119 321.466 239.271 324.68 238.447L323.812 235.057C327.045 234.229 330.294 233.426 333.558 232.649L334.369 236.053C337.583 235.288 340.812 234.548 344.055 233.833L343.302 230.415C346.557 229.698 349.826 229.006 353.109 228.34L353.805 231.77C357.05 231.112 360.309 230.479 363.582 229.871L362.943 226.43C366.214 225.823 369.499 225.241 372.796 224.684L373.379 228.136C376.652 227.583 379.938 227.057 383.236 226.556L382.71 223.096C385.995 222.597 389.291 222.124 392.599 221.676L393.068 225.144C396.357 224.699 399.659 224.28 402.971 223.886L402.558 220.41C405.859 220.018 409.172 219.651 412.495 219.31L412.852 222.792C416.148 222.453 419.455 222.14 422.772 221.853L422.471 218.366C425.792 218.079 429.123 217.817 432.465 217.582L432.711 221.073C436.01 220.84 439.319 220.633 442.637 220.451L442.446 216.956C445.782 216.774 449.128 216.617 452.483 216.486L452.62 219.984C455.919 219.855 459.228 219.752 462.545 219.675L462.463 216.176C465.797 216.098 469.139 216.046 472.489 216.02L472.517 219.519C474.183 219.506 475.851 219.5 477.521 219.5C479.175 219.5 480.828 219.505 482.481 219.514L482.501 216.014C485.821 216.033 489.14 216.07 492.459 216.127L492.4 219.626C495.706 219.682 499.011 219.757 502.315 219.85L502.414 216.351C505.734 216.445 509.054 216.557 512.371 216.688L512.233 220.186C515.537 220.316 518.84 220.465 522.141 220.632L522.318 217.137C525.635 217.305 528.95 217.491 532.263 217.697L532.046 221.19C535.349 221.394 538.649 221.617 541.945 221.859L542.201 218.368C545.511 218.61 548.818 218.871 552.121 219.15L551.827 222.638C555.127 222.917 558.424 223.214 561.716 223.529L562.05 220.045C565.355 220.362 568.656 220.698 571.952 221.051L571.579 224.531C574.871 224.884 578.158 225.256 581.439 225.645L581.852 222.17C585.153 222.562 588.448 222.972 591.737 223.401L591.285 226.872C594.563 227.299 597.836 227.744 601.102 228.208L601.594 224.743C604.889 225.211 608.178 225.698 611.46 226.203L610.928 229.662C614.196 230.165 617.457 230.686 620.71 231.225L621.283 227.772C624.566 228.317 627.841 228.879 631.107 229.46L630.494 232.906C633.754 233.486 637.006 234.085 640.248 234.701L640.902 231.263C644.165 231.884 647.42 232.523 650.665 233.181L649.969 236.611C653.22 237.27 656.461 237.947 659.691 238.643L660.428 235.221C663.672 235.92 666.906 236.637 670.129 237.373L669.35 240.785C672.586 241.524 675.811 242.281 679.024 243.057L679.846 239.655C683.077 240.435 686.296 241.235 689.503 242.052L688.638 245.444C691.848 246.262 695.046 247.1 698.23 247.955L699.138 244.575C702.355 245.44 705.558 246.323 708.747 247.226L707.794 250.594C710.974 251.493 714.139 252.412 717.29 253.349L718.288 249.994C721.488 250.946 724.672 251.917 727.841 252.907L726.798 256.247C729.951 257.233 733.089 258.237 736.211 259.26L737.301 255.934C740.473 256.974 743.628 258.032 746.766 259.111L745.628 262.421C748.758 263.496 751.871 264.591 754.965 265.705L756.151 262.412C759.285 263.541 762.401 264.689 765.498 265.857L764.263 269.131C767.365 270.301 770.448 271.49 773.511 272.699L774.796 269.444C777.888 270.664 780.961 271.905 784.012 273.165L782.676 276.4C785.746 277.668 788.795 278.955 791.821 280.263L793.209 277.05C796.255 278.367 799.279 279.703 802.28 281.059L800.838 284.249C803.87 285.619 806.878 287.01 809.862 288.421L811.359 285.257C814.361 286.678 817.339 288.118 820.292 289.579L818.74 292.716C821.719 294.19 824.672 295.685 827.597 297.201L829.207 294.093C832.161 295.623 835.087 297.174 837.987 298.746L836.318 301.822C839.235 303.404 842.124 305.007 844.983 306.631L846.711 303.588C849.607 305.233 852.474 306.899 855.31 308.588L853.52 311.595C856.367 313.29 859.183 315.007 861.967 316.745L863.821 313.776C866.649 315.542 869.444 317.329 872.206 319.14L870.288 322.067C873.056 323.881 875.791 325.718 878.49 327.576L880.474 324.693C883.222 326.585 885.934 328.5 888.61 330.438L886.557 333.272C889.235 335.212 891.876 337.175 894.478 339.16L896.601 336.377C899.254 338.401 901.868 340.449 904.442 342.519L902.248 345.246C904.823 347.318 907.357 349.413 909.848 351.532L912.115 348.865C914.657 351.026 917.156 353.211 919.61 355.42L917.269 358.021C919.724 360.231 922.135 362.465 924.5 364.723L926.917 362.191C929.327 364.493 931.691 366.82 934.007 369.171L931.514 371.627C933.831 373.98 936.099 376.357 938.316 378.759L940.888 376.384C943.146 378.83 945.354 381.302 947.509 383.799L944.86 386.086C947.016 388.584 949.119 391.107 951.168 393.655L953.896 391.463C955.978 394.054 958.006 396.671 959.976 399.314L957.17 401.406C959.141 404.049 961.054 406.718 962.908 409.412L965.791 407.428C967.675 410.166 969.499 412.93 971.261 415.72L968.302 417.589C970.059 420.37 971.753 423.176 973.384 426.008L976.417 424.261C978.076 427.141 979.67 430.048 981.199 432.982L978.095 434.6C979.61 437.506 981.058 440.438 982.44 443.395L985.611 441.913C987.017 444.923 988.355 447.959 989.623 451.022L986.389 452.361C987.64 455.38 988.821 458.426 989.933 461.496L993.224 460.305C994.352 463.423 995.409 466.567 996.394 469.738L993.051 470.776C994.019 473.893 994.916 477.036 995.74 480.204L999.127 479.323C999.959 482.522 1000.72 485.747 1001.4 488.998L997.978 489.719C998.65 492.908 999.249 496.122 999.774 499.36L1003.23 498.8C1003.76 502.057 1004.21 505.338 1004.59 508.644L1001.11 509.042C1001.48 512.272 1001.78 515.526 1002 518.804L1005.49 518.566Z" stroke="#F0C64A" stroke-width="7" stroke-dasharray="10 10"/>
</svg>
