<svg width="58" height="52" viewBox="5 0 58 52" fill="#8e63c3" xmlns="http://www.w3.org/2000/svg" >
<path d="M49.8999 26.5086C49.9665 25.9918 49.9999 25.4578 49.9999 24.8893C49.9999 24.3381 49.9665 23.7869 49.8832 23.2701L53.2665 20.5484C53.5665 20.3073 53.6499 19.8422 53.4665 19.4976L50.2665 13.7787C50.0665 13.3997 49.6499 13.2791 49.2832 13.3997L45.2999 15.0534C44.4665 14.3988 43.5832 13.8476 42.5999 13.4342L41.9999 9.0588C41.9332 8.64538 41.5999 8.35254 41.1999 8.35254H34.7999C34.3999 8.35254 34.0832 8.64538 34.0165 9.0588L33.4165 13.4342C32.4332 13.8476 31.5332 14.416 30.7165 15.0534L26.7332 13.3997C26.3665 13.2619 25.9499 13.3997 25.7499 13.7787L22.5665 19.4976C22.3665 19.8594 22.4332 20.3073 22.7665 20.5484L26.1499 23.2701C26.0665 23.7869 25.9999 24.3553 25.9999 24.8893C25.9999 25.4233 26.0332 25.9918 26.1165 26.5086L22.7332 29.2302C22.4332 29.4714 22.3499 29.9365 22.5332 30.281L25.7332 36C25.9332 36.379 26.3499 36.4995 26.7165 36.379L30.6999 34.7253C31.5332 35.3799 32.4165 35.9311 33.3999 36.3445L33.9999 40.7199C34.0832 41.1333 34.3999 41.4261 34.7999 41.4261H41.1999C41.5999 41.4261 41.9332 41.1333 41.9832 40.7199L42.5832 36.3445C43.5665 35.9311 44.4665 35.3799 45.2832 34.7253L49.2665 36.379C49.6332 36.5168 50.0499 36.379 50.2499 36L53.4499 30.281C53.6499 29.902 53.5665 29.4714 53.2499 29.2302L49.8999 26.5086ZM37.9999 31.0906C34.6999 31.0906 31.9999 28.3 31.9999 24.8893C31.9999 21.4786 34.6999 18.688 37.9999 18.688C41.2999 18.688 43.9999 21.4786 43.9999 24.8893C43.9999 28.3 41.2999 31.0906 37.9999 31.0906Z" fill="#696969"/>
</svg>
